<svg xmlns="http://www.w3.org/2000/svg" width="560" height="33.727" viewBox="0 0 560 33.727"><g data-name="36257-O0KTX6"><path d="M403.364 24.177c58.214 0 113.056-2.337 156.636-8.489l-.093-.637c-43.528 6.146-98.348 8.483-156.543 8.483-92.33 0-193.156-5.883-270.9-11.767a5207.943 5207.943 0 01-95.349-8.09 3736.204 3736.204 0 01-27.29-2.666C6.656.689 4.217.436 2.571.264S.074 0 .071 0L0 .639C.007.64 218.651 24.177 403.364 24.177z" fill="#666564" fill-rule="evenodd"/><path d="M138.388 4.783a2.679 2.679 0 014.492-1.257c.771 1.614 1.307 1.347 1.307 1.347a2.135 2.135 0 00-1.939 1.475c-.252.66-1.163 4.326-3.766 6.033-1.2.787-2.7.733-3.833 1.467-.966.633-1.566 2.966-2.933 3a1.123 1.123 0 00.1-.2c-.367.233-.833.1-1.233.1.067-.167-.1-.034 0-.2-.067.067-.067-.1-.133-.067-.033-.3-.167-.5.033-.733-.1.1 0 0-.1.067-.2-.6 2.742-2.492 3.042-4.125a9.788 9.788 0 014.965-6.908M159.801 5.541c1.782-2.284 4.739.068 4.478 1.906 2.737 1 4.458 7.681 4.775 8.925 0 0 2.121 3.555 2.034 6.019-.316-.829-.321.066-.771-.717-.046.093-.632-.553-.677-.461-.7-.657-1.054-2.984-1.577-3.273s-3.787-1-5.94-2.95a6.561 6.561 0 01-2.169-5.367c.447-3.116-1.963-2.993-1.963-2.993a3.7 3.7 0 001.81-1.089M325.038 8.641c-.423-.427-1.96-1.743-3.188-1.4a3.8 3.8 0 00-2.5 3.578l.025-.005s-.729.614-.906.777a14.021 14.021 0 00-3.614 7.5 13.806 13.806 0 00-.054 3.812c.2.842-.614 2.281-1.073 3.216-.212.406-2.341 3.221-.861 2.611-.519 1.144.41.762.41.762s-.328.968.218.968c.222 0 .871-.968.871-.968s0 1.852.812-.456c.544 2.179 1.751-3.5 2.15-4.253s1.915-1.4 3.1-2.005a7.426 7.426 0 002.854-3.361 11.526 11.526 0 001.326-5.5c0-4.628 2.162-4.792 2.162-4.792a3.526 3.526 0 01-1.726-.49M120.748 4.063c1.017.589 1.885 3.761 1.646 6.441a18.271 18.271 0 00.24 5.642c-.009.165-.233-.5-.3-.386s-.489 1.244-.489 1.244c-.695-.082-1.038-1.01-1.038-1.01s-.114.471-.228.356c-.472-.491-.015-2.191-.179-2.831-.478-1.869-1.455-1.673-2.394-3.172a6.115 6.115 0 01-.9-4.737c.2-.614.519-1.094.065-1.75-.314-.457-.754-.166-1.191-.129.2-.147.471-.173.674-.32.231-.162 2.81-3.809 4.091.653M280.852 10.414c-.113-.238-.653-3.444-3.16-3.02-1.622.275-2.721 1.536-2.122 3.768-.233 1.864-1.544 2.9-.566 6.512 1.089 4.021 3.5 6.329 3.591 7.607.065 1.014-.085 5.186-.085 5.186.071-.065.812-.588.883-.653a4.2 4.2 0 00.424.57c.017-.1.312-.171.33-.267.249.243.578.751.94.917a2.4 2.4 0 01.186-.891c.006.178.554.6.59.725-.036-.125.275-.638.37-1.25.208.255 1.187.158 1.341.384a15.547 15.547 0 01-1.8-6.541c-.066-2.273 1.568-4.447 1.55-6.688-.025-3.117-2.471-6.361-2.471-6.361M202.527 8.42c-.062-.2-.21-3.53-2.939-2.974-1.281.261-1.811 2.224-1.5 3.28-.4 1.465-1.114 2.282-.766 5.3.387 3.359 2.593 4.726 2.519 5.762-.067.821-.059 2.136-.088 2.988l-.041.218c.063-.044.137-.018.2-.061.091.165.116.68.241.841.025-.074.453-.254.208-.581.167.225.954 1.311 1.072 1.155-.016.144.269-.459.283-.354-.014-.1.051-.1.2-.579.133.23.349.241.444.441.793-.968.037-2.948.136-3.7.214-1.83 1.2-4.408 1.443-6.208.344-2.5-1.41-5.521-1.41-5.521M358.865 13.16c-.078-.255.2-3.76-3.086-3.791-2.07-.019-2.342 2.068-2.723 3.755-.515 1.834-1.959 2.383-1.525 6.153.483 4.2 2.915 7.163 2.816 8.459a40.343 40.343 0 00-.111 4.2 4.938 4.938 0 00.395.657c.032-.093.146-.24.178-.333.213.282 1.165 1.64 1.316 1.444a5.192 5.192 0 00.795-1.54c.17.288.236.288.357.538 1.014-1.215.393-4.7.521-5.643.278-2.29 2.262-4.894 2.582-7.145.448-3.131-1.516-6.757-1.516-6.757" fill="#666564" fill-rule="evenodd"/></g></svg>
